<svg width="200" height="200" viewBox="0 0 200 200" fill="none" xmlns="http://www.w3.org/2000/svg">
  <!-- Background Circle -->
  <circle cx="100" cy="100" r="95" fill="#16a34a"/>
  
  <!-- Leaf/Plant Icon -->
  <path d="M100 50 C80 50, 60 70, 60 90 C60 110, 80 130, 100 130 C100 130, 100 50, 100 50 Z" fill="#dcfce7"/>
  <path d="M100 50 C120 50, 140 70, 140 90 C140 110, 120 130, 100 130 C100 130, 100 50, 100 50 Z" fill="#bbf7d0"/>
  
  <!-- Blockchain Links -->
  <circle cx="70" cy="140" r="8" fill="#ffffff" opacity="0.9"/>
  <circle cx="100" cy="150" r="8" fill="#ffffff" opacity="0.9"/>
  <circle cx="130" cy="140" r="8" fill="#ffffff" opacity="0.9"/>
  <line x1="70" y1="140" x2="100" y2="150" stroke="#ffffff" stroke-width="3" opacity="0.9"/>
  <line x1="100" y1="150" x2="130" y2="140" stroke="#ffffff" stroke-width="3" opacity="0.9"/>
  
  <!-- Text -->
  <text x="100" y="175" font-family="Arial, sans-serif" font-size="14" font-weight="bold" fill="#ffffff" text-anchor="middle">AgroChain360</text>
</svg>
